<svg width="109" height="49" viewBox="0 0 109 49" fill="none" xmlns="http://www.w3.org/2000/svg">
    <g filter="url(#filter0_d)">
        <path d="M11.8016 41C9.20666 41 6.61322 41 4.00152 41C4.00152 40.2611 4.00152 39.5222 4.00152 38.7833C4.85181 38.7833 5.70361 38.7833 6.5539 38.7833C6.5539 38.2925 6.5539 37.8244 6.5539 37.3604C5.69144 37.3604 4.84572 37.3604 4.00152 37.3604C4.00152 36.0222 4.00152 34.6825 4.00152 33.3443C4.45632 33.3443 4.90961 33.3443 5.36441 33.3443C5.36441 32.8494 5.36441 32.3826 5.36441 31.8806C4.89744 31.8806 4.44872 31.8806 4.00152 31.8806C4.00152 30.2773 4.00152 28.6725 4.00152 27.0692C4.85333 27.0692 5.70513 27.0692 6.55542 27.0692C6.55542 26.6123 6.55542 26.1991 6.55542 25.7718C5.69297 25.7718 4.84724 25.7718 4.00152 25.7718C4.00152 24.2376 4.00152 22.7034 4.00152 21.1691C4.45632 21.1691 4.90961 21.1691 5.36745 21.1691C5.36745 20.8786 5.36745 20.6107 5.36745 20.3329C4.90048 20.3329 4.45176 20.3329 4.00152 20.3329C4.00152 18.6309 4.00152 16.9302 4.00152 15.2282C4.85333 15.2282 5.70513 15.2282 6.56302 15.2282C6.56302 14.7924 6.56302 14.3835 6.56302 13.9478C6.4535 13.9478 6.35007 13.9478 6.24664 13.9478C5.49827 13.9421 4.74837 13.9365 4 13.9308C4 12.4939 4 11.0584 4 9.62143C4.45328 9.62143 4.90809 9.62143 5.36441 9.62143C5.36441 9.11378 5.36441 8.6442 5.36441 8.1577C4.89744 8.1577 4.44872 8.1577 4 8.1577C4 6.67986 4 5.20062 4 3.72279C4.76358 3.72843 5.52717 3.73548 6.28923 3.74112C6.37593 3.74112 6.46263 3.74112 6.5539 3.74112C6.5539 3.24475 6.5539 2.77658 6.5539 2.30136C5.69144 2.30136 4.84572 2.30136 4 2.30136C4 1.53424 4 0.76712 4 0C6.59649 0 9.19298 0 11.7986 0C11.7986 0.157936 11.7971 0.282029 11.7986 0.407532C11.8092 1.3481 11.8229 2.29008 11.8305 3.23065C11.8321 3.35474 11.8716 3.41678 12.0176 3.43371C12.2473 3.4605 12.4755 3.51267 12.7036 3.55357C17.0646 4.33056 20.7258 6.24695 23.6007 9.39298C26.1941 12.2302 27.6589 15.5229 27.9494 19.2386C28.0803 20.9195 27.9601 22.5976 27.5555 24.2475C26.8178 27.2609 25.3271 29.9148 23.0576 32.1781C20.452 34.7756 17.273 36.4678 13.5509 37.2786C12.9896 37.4013 12.4222 37.5 11.8001 37.6199C11.8016 38.7438 11.8016 39.8719 11.8016 41ZM11.8305 29.4946C15.0826 28.8417 19.4968 25.6379 19.3827 20.2596C19.3295 17.7622 18.2875 15.6963 16.4516 13.9421C15.1693 12.7181 13.6148 11.9115 11.8321 11.4871C11.8305 17.5056 11.8305 23.4973 11.8305 29.4946Z" fill="#F9F9F9"/>
    </g>
    <g filter="url(#filter1_d)">
        <path d="M44.8164 28H42.4824V15.7246H38.2832V13.7227H49.0156V15.7246H44.8164V28ZM58.5859 28L58.2637 26.584H58.1465C57.8275 27.0853 57.3717 27.4792 56.7793 27.7656C56.1934 28.0521 55.5228 28.1953 54.7676 28.1953C53.459 28.1953 52.4824 27.8698 51.8379 27.2188C51.1934 26.5677 50.8711 25.5814 50.8711 24.2598V17.1992H53.1855V23.8594C53.1855 24.6862 53.3548 25.3079 53.6934 25.7246C54.0319 26.1348 54.5625 26.3398 55.2852 26.3398C56.2487 26.3398 56.9551 26.0534 57.4043 25.4805C57.86 24.901 58.0879 23.9342 58.0879 22.5801V17.1992H60.3926V28H58.5859ZM67.6875 26.3398C68.2474 26.3398 68.8073 26.252 69.3672 26.0762V27.8047C69.1133 27.9154 68.7845 28.0065 68.3809 28.0781C67.9837 28.1562 67.5703 28.1953 67.1406 28.1953C64.9661 28.1953 63.8789 27.0495 63.8789 24.7578V18.9375H62.4043V17.9219L63.9863 17.082L64.7676 14.7969H66.1836V17.1992H69.2598V18.9375H66.1836V24.7188C66.1836 25.2721 66.3203 25.6823 66.5938 25.9492C66.8737 26.2096 67.2383 26.3398 67.6875 26.3398ZM81.1152 22.5801C81.1152 24.3444 80.6628 25.7214 79.7578 26.7109C78.8529 27.7005 77.5931 28.1953 75.9785 28.1953C74.9694 28.1953 74.0775 27.9674 73.3027 27.5117C72.528 27.056 71.9323 26.4017 71.5156 25.5488C71.099 24.696 70.8906 23.7064 70.8906 22.5801C70.8906 20.8288 71.3398 19.4616 72.2383 18.4785C73.1367 17.4954 74.403 17.0039 76.0371 17.0039C77.5996 17.0039 78.8366 17.5085 79.748 18.5176C80.6595 19.5202 81.1152 20.8743 81.1152 22.5801ZM73.2539 22.5801C73.2539 25.0736 74.1751 26.3203 76.0176 26.3203C77.8405 26.3203 78.752 25.0736 78.752 22.5801C78.752 20.1126 77.834 18.8789 75.998 18.8789C75.0345 18.8789 74.3346 19.1979 73.8984 19.8359C73.4688 20.474 73.2539 21.3887 73.2539 22.5801ZM89.2402 17.0039C89.7025 17.0039 90.0833 17.0365 90.3828 17.1016L90.1582 19.2402C89.8327 19.1621 89.4941 19.123 89.1426 19.123C88.2246 19.123 87.4792 19.4225 86.9062 20.0215C86.3398 20.6204 86.0566 21.3984 86.0566 22.3555V28H83.7617V17.1992H85.5586L85.8613 19.1035H85.9785C86.3366 18.459 86.8021 17.9479 87.375 17.5703C87.9544 17.1927 88.5762 17.0039 89.2402 17.0039ZM104.25 20.7246C104.25 23.0814 103.596 24.8848 102.287 26.1348C100.979 27.3783 99.0938 28 96.6328 28H92.6387V13.7227H97.0527C99.3249 13.7227 101.092 14.3346 102.355 15.5586C103.618 16.7826 104.25 18.5046 104.25 20.7246ZM101.789 20.8027C101.789 17.3848 100.191 15.6758 96.9941 15.6758H94.9727V26.0371H96.6328C100.07 26.0371 101.789 24.2923 101.789 20.8027Z" fill="white"/>
    </g>
    <defs>
        <filter id="filter0_d" x="0" y="0" width="32" height="49" filterUnits="userSpaceOnUse" color-interpolation-filters="sRGB">
            <feFlood flood-opacity="0" result="BackgroundImageFix"/>
            <feColorMatrix in="SourceAlpha" type="matrix" values="0 0 0 0 0 0 0 0 0 0 0 0 0 0 0 0 0 0 127 0"/>
            <feOffset dy="4"/>
            <feGaussianBlur stdDeviation="2"/>
            <feColorMatrix type="matrix" values="0 0 0 0 0 0 0 0 0 0 0 0 0 0 0 0 0 0 0.25 0"/>
            <feBlend mode="normal" in2="BackgroundImageFix" result="effect1_dropShadow"/>
            <feBlend mode="normal" in="SourceGraphic" in2="effect1_dropShadow" result="shape"/>
        </filter>
        <filter id="filter1_d" x="34.2832" y="13.7227" width="73.9668" height="22.4727" filterUnits="userSpaceOnUse" color-interpolation-filters="sRGB">
            <feFlood flood-opacity="0" result="BackgroundImageFix"/>
            <feColorMatrix in="SourceAlpha" type="matrix" values="0 0 0 0 0 0 0 0 0 0 0 0 0 0 0 0 0 0 127 0"/>
            <feOffset dy="4"/>
            <feGaussianBlur stdDeviation="2"/>
            <feColorMatrix type="matrix" values="0 0 0 0 0 0 0 0 0 0 0 0 0 0 0 0 0 0 0.25 0"/>
            <feBlend mode="normal" in2="BackgroundImageFix" result="effect1_dropShadow"/>
            <feBlend mode="normal" in="SourceGraphic" in2="effect1_dropShadow" result="shape"/>
        </filter>
    </defs>
</svg>
