<svg width="393" height="248" viewBox="0 0 393 248" fill="none" xmlns="http://www.w3.org/2000/svg">
    <g opacity="0.5">
        <circle cx="204.5" cy="123.5" r="123.5" fill="#EEEEEE" fill-opacity="0.4"/>
        <circle cx="204.5" cy="123.5" r="123.5" fill="url(#paint0_linear)"/>
    </g>
    <path d="M388.519 158.134H346.062V216.573C346.062 218.052 346.629 219.531 347.758 220.66C348.889 221.79 350.371 222.353 351.853 222.353H382.731C384.211 222.353 385.696 221.79 386.824 220.66C387.954 219.531 388.52 218.052 388.52 216.573V158.134H388.519Z" fill="#EFEFEF"/>
    <path d="M382.759 171.575H351.823V216.593H382.759V171.575Z" fill="#5BBCBD"/>
    <path d="M388.5 149.173C389.651 149.173 390.801 149.611 391.681 150.484C392.56 151.36 393 152.507 393 153.653C393 154.8 392.56 155.947 391.681 156.823C390.802 157.696 389.651 158.134 388.5 158.134H346.08C344.929 158.134 343.779 157.696 342.899 156.823C342.021 155.948 341.581 154.8 341.581 153.653C341.581 152.507 342.021 151.36 342.899 150.484C343.778 149.61 344.929 149.173 346.08 149.173H388.5Z" fill="#EFEFEF"/>
    <path d="M369.531 149.173H365.051V158.134H369.531V149.173Z" fill="#CCCBCA"/>
    <path d="M382.712 214.357H376.923V216.607H382.712V214.357Z" fill="#3F4A5A"/>
    <path d="M382.712 209.849H376.923V212.099H382.712V209.849Z" fill="#3F4A5A"/>
    <path d="M382.712 205.349H376.923V207.603H382.712V205.349Z" fill="#3F4A5A"/>
    <path d="M382.712 200.841H376.923V203.094H382.712V200.841Z" fill="#3F4A5A"/>
    <path d="M382.712 196.342H376.923V198.592H382.712V196.342Z" fill="#3F4A5A"/>
    <path d="M382.712 191.843H376.923V194.093H382.712V191.843Z" fill="#3F4A5A"/>
    <path d="M382.712 187.343H376.923V189.594H382.712V187.343Z" fill="#3F4A5A"/>
    <path d="M382.712 182.835H376.923V185.088H382.712V182.835Z" fill="#3F4A5A"/>
    <path d="M382.712 178.336H376.923V180.586H382.712V178.336Z" fill="#3F4A5A"/>
    <path d="M382.712 173.828H376.923V176.078H382.712V173.828Z" fill="#3F4A5A"/>
    <path d="M382.712 169.328H376.923V171.581H382.712V169.328Z" fill="#3F4A5A"/>
    <path d="M382.712 164.829H376.923V167.079H382.712V164.829Z" fill="#3F4A5A"/>
    <path d="M382.712 160.321H376.923V162.571H382.712V160.321Z" fill="#3F4A5A"/>
    <path d="M369.524 149.07H365.021V92.2477C365.021 90.942 363.959 89.8823 362.653 89.8823C361.354 89.8823 360.297 90.9431 360.297 92.2477V98.3998C360.297 102.187 357.22 105.268 353.438 105.268C349.651 105.268 346.569 102.187 346.569 98.3998V92.2477C346.569 90.942 345.508 89.8823 344.202 89.8823C342.902 89.8823 341.845 90.9431 341.845 92.2477V98.3998C341.845 102.187 338.768 105.268 334.987 105.268C331.198 105.268 328.116 102.187 328.116 98.3998V92.2477C328.116 90.942 327.052 89.8823 325.745 89.8823C324.448 89.8823 323.395 90.9431 323.395 92.2477V109.191H318.892V92.2477C318.892 88.4608 321.966 85.3794 325.745 85.3794C329.535 85.3794 332.619 88.4608 332.619 92.2477V98.3998C332.619 99.7047 333.68 100.765 334.987 100.765C336.286 100.765 337.342 99.7044 337.342 98.3998V92.2477C337.342 88.4608 340.419 85.3794 344.202 85.3794C347.99 85.3794 351.071 88.4608 351.071 92.2477V98.3998C351.071 99.7047 352.132 100.765 353.437 100.765C354.737 100.765 355.793 99.7044 355.793 98.3998V92.2477C355.793 88.4608 358.87 85.3794 362.653 85.3794C366.441 85.3794 369.522 88.4608 369.522 92.2477V149.07H369.524Z" fill="#E6E5E5"/>
    <path d="M382.479 113.809C382.479 116.237 384.442 118.193 386.862 118.193C389.284 118.193 391.249 116.237 391.249 113.809C391.249 111.388 389.284 109.431 386.862 109.431C384.442 109.431 382.479 111.387 382.479 113.809Z" fill="#E6E5E5"/>
    <path d="M377.417 145.598C377.417 146.285 377.977 146.852 378.672 146.852C379.364 146.852 379.924 146.284 379.924 145.598C379.924 144.9 379.364 144.344 378.672 144.344C377.978 144.344 377.417 144.899 377.417 145.598Z" fill="#E6E5E5"/>
    <path d="M351.115 137.922C351.115 138.982 351.978 139.852 353.048 139.852C354.113 139.852 354.973 138.982 354.973 137.922C354.973 136.847 354.113 135.992 353.048 135.992C351.978 135.993 351.115 136.847 351.115 137.922Z" fill="#E6E5E5"/>
    <path d="M372.737 131.487C372.737 132.865 373.859 133.993 375.239 133.993C376.624 133.993 377.745 132.865 377.745 131.487C377.745 130.104 376.624 128.981 375.239 128.981C373.859 128.981 372.737 130.104 372.737 131.487Z" fill="#E6E5E5"/>
    <path d="M354.383 161.547C354.383 163.308 355.813 164.748 357.581 164.748C359.35 164.748 360.783 163.308 360.783 161.547C360.783 159.78 359.35 158.347 357.581 158.347C355.813 158.348 354.383 159.781 354.383 161.547Z" fill="#9DE8F7"/>
    <path d="M356.303 121.65C356.303 122.359 356.876 122.93 357.583 122.93C358.291 122.93 358.863 122.359 358.863 121.65C358.863 120.948 358.291 120.37 357.583 120.37C356.876 120.37 356.303 120.948 356.303 121.65Z" fill="#E6E5E5"/>
    <path d="M365.904 171.574C365.904 172.635 366.765 173.495 367.827 173.495C368.886 173.495 369.744 172.635 369.744 171.574C369.744 170.518 368.886 169.655 367.827 169.655C366.766 169.655 365.904 170.517 365.904 171.574Z" fill="#9DE8F7"/>
    <path d="M308.28 115.624C304.742 115.624 301.848 118.519 301.848 122.055C301.848 125.593 304.742 128.488 308.28 128.488H334.007C337.545 128.488 340.438 125.594 340.438 122.055C340.438 118.519 337.545 115.624 334.007 115.624H308.28Z" fill="#EFEFEF"/>
    <path d="M321.144 158.073L278.786 200.431C275.217 203.999 273.946 209.498 275.997 214.449C278.048 219.402 282.833 222.391 287.881 222.391H354.405C359.452 222.391 364.238 219.401 366.29 214.449C368.34 209.498 367.069 204 363.501 200.431L321.144 158.073Z" fill="#EFEFEF"/>
    <path d="M334.016 128.489H308.284V170.936H334.016V128.489Z" fill="#EFEFEF"/>
    <path d="M323.446 134.878H318.966V141.279H323.446V134.878Z" fill="#CCCBCA"/>
    <path d="M328.14 115.676H314.059V134.878H328.14V115.676Z" fill="#3F4A5A"/>
    <path d="M328.14 109.275H314.059V115.676H328.14V109.275Z" fill="#262E37"/>
    <path d="M338.633 183.736H303.564L282.852 204.494C280.822 206.529 280.218 209.561 281.316 212.219C282.416 214.878 284.981 216.593 287.851 216.593H354.347C357.218 216.593 359.781 214.877 360.882 212.219C361.98 209.561 361.379 206.529 359.349 204.496L338.633 183.736Z" fill="#F67656"/>
    <path d="M303.617 207.878C306.458 207.878 308.762 205.574 308.762 202.733C308.762 199.891 306.458 197.587 303.617 197.587C300.775 197.587 298.471 199.891 298.471 202.733C298.471 205.574 300.775 207.878 303.617 207.878Z" fill="white"/>
    <path d="M327.254 196.829C328.675 196.829 329.827 195.677 329.827 194.256C329.827 192.834 328.675 191.682 327.254 191.682C325.833 191.682 324.68 192.834 324.68 194.256C324.68 195.677 325.833 196.829 327.254 196.829Z" fill="white"/>
    <path d="M342.373 204.933C343.261 204.933 343.981 204.213 343.981 203.325C343.981 202.437 343.261 201.717 342.373 201.717C341.485 201.717 340.765 202.437 340.765 203.325C340.765 204.213 341.485 204.933 342.373 204.933Z" fill="white"/>
    <path d="M316.001 176.368C317.067 176.368 317.931 175.504 317.931 174.438C317.931 173.371 317.067 172.507 316.001 172.507C314.935 172.507 314.07 173.371 314.07 174.438C314.07 175.504 314.935 176.368 316.001 176.368Z" fill="#F67656"/>
    <path d="M324.036 159.364C325.811 159.364 327.251 157.924 327.251 156.149C327.251 154.373 325.811 152.934 324.036 152.934C322.26 152.934 320.821 154.373 320.821 156.149C320.821 157.924 322.26 159.364 324.036 159.364Z" fill="#F67656"/>
    <path d="M333.474 211.899C335.241 211.899 336.674 210.466 336.674 208.699C336.674 206.931 335.241 205.499 333.474 205.499C331.706 205.499 330.274 206.931 330.274 208.699C330.274 210.466 331.706 211.899 333.474 211.899Z" fill="white"/>
    <path d="M96.9262 146.449C117.711 136.38 126.398 111.368 116.329 90.5837C106.26 69.799 81.2477 61.1122 60.463 71.1812C39.6783 81.2503 30.9915 106.262 41.0606 127.047C51.1296 147.832 76.1415 156.518 96.9262 146.449Z" fill="#5BBCBD"/>
    <path d="M44.8203 92.9995L43.8866 92.6748C44.05 92.2029 44.3326 91.7723 44.7238 91.3956L45.409 92.1094C45.1313 92.3764 44.933 92.6763 44.8203 92.9995Z" fill="white"/>
    <path d="M107.431 111.803C107.009 111.195 106.452 110.547 105.776 109.878L106.472 109.176C107.191 109.887 107.787 110.58 108.243 111.24L107.431 111.803ZM103.843 108.165C103.208 107.654 102.508 107.129 101.762 106.606L102.33 105.795C103.095 106.332 103.812 106.87 104.464 107.395L103.843 108.165ZM99.5869 105.163C98.8808 104.718 98.1264 104.265 97.3464 103.815L97.84 102.958C98.6315 103.413 99.3968 103.874 100.114 104.325L99.5869 105.163ZM95.0551 102.55C94.3069 102.151 93.5233 101.749 92.7244 101.354L93.1633 100.468C93.9701 100.867 94.7632 101.274 95.5194 101.677L95.0551 102.55ZM90.3599 100.221C89.5796 99.8607 88.7814 99.5028 87.9665 99.1487L88.3598 98.2417C89.1829 98.599 89.9885 98.9599 90.7755 99.3247L90.3599 100.221ZM85.5487 98.1328C84.7494 97.807 83.9351 97.4851 83.1086 97.1691L83.4621 96.2453C84.2952 96.5641 85.1154 96.8881 85.9219 97.2163L85.5487 98.1328ZM80.6475 96.2573C80.2384 96.1108 79.8262 95.9656 79.4118 95.8217C78.9965 95.6774 78.5818 95.5355 78.1687 95.3969L78.4833 94.4584C78.8995 94.5985 79.3171 94.7415 79.7365 94.8868C80.1542 95.0322 80.5685 95.1786 80.9811 95.3259L80.6475 96.2573ZM75.6733 94.5871C74.8286 94.3223 73.9905 94.07 73.1606 93.8299L73.4358 92.8805C74.2719 93.1223 75.1164 93.377 75.968 93.6431L75.6733 94.5871ZM70.6333 93.1291C69.7743 92.902 68.9266 92.6879 68.0902 92.4874L68.32 91.5259C69.1637 91.7281 70.0195 91.9438 70.886 92.1732L70.6333 93.1291ZM65.5331 91.9107C64.661 91.7259 63.7968 91.5557 62.9627 91.4046L63.1395 90.4315C63.983 90.5847 64.8571 90.7566 65.7378 90.9432L65.5331 91.9107ZM60.3796 90.9784C59.4934 90.8471 58.6212 90.7361 57.7866 90.6469L57.8914 89.6638C58.7392 89.7542 59.625 89.8673 60.5239 90.0001L60.3796 90.9784ZM55.1864 90.4316C54.2738 90.3797 53.3989 90.3581 52.5867 90.3661L52.5762 89.3778C53.4103 89.3694 54.3077 89.3915 55.2425 89.4447L55.1864 90.4316ZM50.0073 90.513C49.0623 90.6194 48.2246 90.7825 47.5156 90.9995L47.2268 90.053C47.993 89.8191 48.891 89.6431 49.8964 89.5303L50.0073 90.513Z" fill="white"/>
    <path d="M109.243 115.373L108.309 115.048C108.422 114.725 108.451 114.367 108.399 113.984L109.378 113.849C109.453 114.388 109.408 114.901 109.243 115.373Z" fill="white"/>
    <path d="M65.2156 136.701C61.9504 135.57 61.6794 129.516 62.0284 124.638C62.5056 117.943 64.4217 109.495 67.4243 100.851C73.7877 82.5277 82.7866 69.5674 87.9148 71.3449L87.5905 72.2796C83.6259 70.9039 74.9527 82.1877 68.3588 101.176C65.3839 109.74 63.4862 118.098 63.0147 124.709C62.5644 131.024 63.4846 135.055 65.5395 135.767L65.2156 136.701Z" fill="white"/>
    <path d="M67.5366 85.5349C57.3031 90.4948 53.0217 102.8 57.9757 113.026C60.6014 118.446 65.2911 122.186 70.6423 123.777C70.8925 123.845 71.1418 123.91 71.3956 123.98C75.571 125.214 79.228 128.127 81.2735 132.349L82.8977 135.702L90.1401 132.193L97.3761 128.688L95.7518 125.335C93.7064 121.113 93.6893 116.436 95.3091 112.395C95.41 112.154 95.5139 111.918 95.6184 111.678C97.6844 106.493 97.6594 100.494 95.0337 95.0736C90.0793 84.8483 77.7705 80.5795 67.5366 85.5349Z" fill="#FFDB79"/>
    <path d="M81.5121 110.769L74.6017 103.248L75.1976 106.947L70.3845 109.279L69.9263 108.333L74.0344 106.343L73.0046 99.9552L79.9197 107.481L79.3269 103.779L84.135 101.449L84.5933 102.395L80.4901 104.383L81.5121 110.769Z" fill="white"/>
    <path d="M69.6218 108.793L88.1231 133.693L88.7541 133.224L70.2529 108.324L69.6218 108.793Z" fill="#353F49"/>
    <path d="M91.925 131.686L92.6846 131.481L84.6132 101.529L83.8536 101.734L91.925 131.686Z" fill="#353F49"/>
    <path d="M85.7506 101.325C86.1293 102.107 85.8012 103.047 85.0169 103.427C84.2345 103.806 83.2934 103.481 82.9146 102.699C82.5347 101.915 82.8619 100.973 83.6442 100.594C84.429 100.213 85.3706 100.541 85.7506 101.325Z" fill="#353F49"/>
    <path d="M71.5849 108.188C71.9636 108.97 71.6355 109.91 70.855 110.288C70.0728 110.667 69.1344 110.341 68.7557 109.559C68.3758 108.775 68.7002 107.834 69.4824 107.455C70.2633 107.077 71.2049 107.404 71.5849 108.188Z" fill="#353F49"/>
    <path d="M98.2811 128.255L82.1155 136.087L86.2537 144.629L102.419 136.798L98.2811 128.255Z" fill="#353F49"/>
    <path d="M107.124 117.49C101.936 120.003 88.544 118.43 73.3898 113.166C55.0658 106.8 42.1063 97.7993 43.8869 92.6738L44.8207 92.9985C43.4445 96.961 54.7262 105.635 73.7146 112.232C92.7027 118.827 106.931 119.011 108.309 115.047L109.244 115.372C108.936 116.26 108.209 116.964 107.124 117.49Z" fill="white"/>
    <path d="M88.4804 72.8675C88.2127 72.5895 87.913 72.3916 87.5898 72.279L87.9143 71.3448C88.3865 71.5088 88.8174 71.7905 89.1933 72.1827L88.4804 72.8675Z" fill="white"/>
    <path d="M69.3489 135.702L68.7855 134.889C69.3945 134.467 70.0422 133.91 70.7112 133.234L71.4137 133.93C70.7024 134.649 70.0079 135.245 69.3489 135.702ZM73.194 131.923L72.4246 131.302C72.9352 130.669 73.4605 129.969 73.9844 129.221L74.7943 129.789C74.2571 130.555 73.7188 131.273 73.194 131.923ZM76.2637 127.573L75.4273 127.046C75.8741 126.336 76.3278 125.582 76.7744 124.805L77.6317 125.299C77.1786 126.086 76.7181 126.852 76.2637 127.573ZM78.9152 122.979L78.0421 122.515C78.4407 121.766 78.8428 120.982 79.2383 120.184L80.1243 120.623C79.7242 121.429 79.3175 122.222 78.9152 122.979ZM81.2672 118.234L80.3694 117.819C80.7301 117.039 81.0887 116.241 81.4421 115.426L82.3493 115.819C81.9923 116.642 81.6313 117.447 81.2672 118.234ZM83.3747 113.38L82.4587 113.008C82.7841 112.208 83.1056 111.394 83.4214 110.567L84.3457 110.92C84.0276 111.754 83.7031 112.574 83.3747 113.38ZM85.2653 108.44L84.3344 108.106C84.4799 107.699 84.6254 107.288 84.7689 106.876C84.9136 106.459 85.0554 106.043 85.1948 105.627L86.1327 105.942C85.9924 106.36 85.8495 106.78 85.7036 107.2C85.5583 107.616 85.412 108.03 85.2653 108.44ZM86.9479 103.427L86.0039 103.132C86.2684 102.288 86.5203 101.449 86.7601 100.619L87.7105 100.895C87.468 101.73 87.2141 102.575 86.9479 103.427ZM88.4174 98.3452L87.4611 98.0926C87.6886 97.2329 87.9027 96.3852 88.1026 95.5491L89.0643 95.7793C88.8629 96.6221 88.6468 97.4781 88.4174 98.3452ZM89.6474 93.1969L88.6805 92.9919C88.8649 92.1201 89.0351 91.2559 89.1865 90.4211L90.1597 90.5984C90.0064 91.4419 89.8338 92.3157 89.6474 93.1969ZM90.5903 87.9826L89.6116 87.8385C89.7429 86.9523 89.8538 86.0801 89.9428 85.2451L90.9262 85.3503C90.8356 86.1981 90.7224 87.0833 90.5903 87.9826ZM91.1456 82.7005L90.158 82.6447C90.2098 81.7317 90.2318 80.8565 90.223 80.0447L91.2119 80.034C91.2214 80.8681 91.1986 81.7653 91.1456 82.7005ZM91.0598 77.3551L90.0767 77.4656C89.9706 76.5211 89.807 75.6837 89.59 74.9746L90.5368 74.685C90.7707 75.4511 90.9464 76.35 91.0598 77.3551Z" fill="white"/>
    <path d="M66.7377 136.837C66.1994 136.91 65.6869 136.864 65.2149 136.701L65.5396 135.766C65.8628 135.879 66.2211 135.909 66.6037 135.857L66.7377 136.837Z" fill="white"/>
    <path d="M304.212 87.7377C304.212 89.3332 302.918 90.6293 301.323 90.6293C299.727 90.6293 298.433 89.3332 298.433 87.7377C298.433 86.1429 299.727 84.8489 301.323 84.8489C302.918 84.8491 304.212 86.1429 304.212 87.7377Z" fill="#F2F2F2"/>
    <path d="M302.432 85.0696C302.799 85.5321 303.019 86.1129 303.019 86.7459C303.019 88.2304 301.817 89.4365 300.333 89.4365C299.696 89.4365 299.114 89.2142 298.654 88.8483C299.089 89.8931 300.119 90.6294 301.324 90.6294C302.918 90.6294 304.212 89.3333 304.212 87.7378C304.212 86.5366 303.476 85.5048 302.432 85.0696Z" fill="#CCCBCA"/>
    <path d="M351.599 73.6543C351.599 75.9318 349.754 77.7808 347.474 77.7808C345.197 77.7808 343.345 75.9318 343.345 73.6543C343.345 71.3767 345.196 69.5273 347.474 69.5273C349.754 69.5278 351.599 71.3767 351.599 73.6543Z" fill="#F2F2F2"/>
    <path d="M349.059 69.845C349.583 70.5021 349.9 71.3291 349.9 72.2373C349.9 74.3587 348.176 76.0775 346.059 76.0775C345.151 76.0775 344.323 75.7634 343.665 75.2369C344.285 76.7284 345.753 77.7805 347.475 77.7805C349.754 77.7805 351.599 75.9316 351.599 73.654C351.599 71.9359 350.554 70.4639 349.059 69.845Z" fill="#CCCBCA"/>
    <path d="M366.751 142.135C366.751 144.413 364.905 146.261 362.627 146.261C360.346 146.261 358.498 144.413 358.498 142.135C358.498 139.857 360.346 138.008 362.627 138.008C364.905 138.008 366.751 139.857 366.751 142.135Z" fill="#FF916E"/>
    <path d="M364.211 138.326C364.735 138.982 365.046 139.812 365.046 140.721C365.046 142.84 363.329 144.56 361.211 144.56C360.303 144.56 359.47 144.244 358.816 143.718C359.438 145.213 360.907 146.261 362.627 146.261C364.906 146.261 366.752 144.413 366.752 142.135C366.751 140.417 365.701 138.944 364.211 138.326Z" fill="#EE643C"/>
    <path d="M290.897 124.648C290.897 127.84 288.311 130.427 285.119 130.427C281.927 130.427 279.342 127.84 279.342 124.648C279.342 121.457 281.927 118.869 285.119 118.869C288.311 118.869 290.897 121.457 290.897 124.648Z" fill="#ADECF7"/>
    <path d="M287.246 119.315C287.978 120.229 288.418 121.392 288.418 122.667C288.418 125.635 286.009 128.043 283.042 128.043C281.772 128.043 280.608 127.599 279.687 126.866C280.556 128.954 282.618 130.427 285.025 130.427C288.218 130.427 290.804 127.84 290.804 124.649C290.804 122.242 289.334 120.183 287.246 119.315Z" fill="#76D0DE"/>
    <g clip-path="url(#clip0)">
        <path d="M124.034 55.8225C123.379 58.6223 123.026 61.537 123.026 64.5315C123.026 85.7648 140.241 102.976 161.47 102.976C182.701 102.976 199.914 85.766 199.914 64.5315H148.399C139.145 64.5315 130.662 61.2664 124.034 55.8225Z" fill="#E6E5E5"/>
        <path d="M275.802 55.8225C276.445 58.6223 276.799 61.537 276.799 64.5315C276.799 85.7648 259.593 102.976 238.356 102.976C217.12 102.976 199.913 85.7648 199.913 64.5315H251.426C260.673 64.5315 269.163 61.2664 275.802 55.8225Z" fill="#E6E5E5"/>
        <path d="M251.433 64.53H148.399V114.797H251.433V64.53Z" fill="#E6E5E5"/>
        <path d="M154.571 114.793C143.391 126.227 136.492 141.862 136.492 159.116C136.492 194.144 164.886 222.536 199.913 222.536C234.942 222.536 263.334 194.144 263.334 159.116C263.334 141.862 256.437 126.227 245.26 114.793H154.571Z" fill="#3F4A5A"/>
        <path d="M199.913 222.537C221.389 222.537 238.799 205.127 238.799 183.651C238.799 162.174 221.389 144.764 199.913 144.764C178.437 144.764 161.027 162.174 161.027 183.651C161.027 205.127 178.437 222.537 199.913 222.537Z" fill="white"/>
        <path d="M199.913 164.643L182.539 147.269L199.913 114.799L217.287 147.269L199.913 164.643Z" fill="#FAD97F"/>
        <path d="M302.432 45.532H296.347V81.3478H302.432V45.532Z" fill="#3F4A5A"/>
        <path d="M243.352 45.532H156.474V64.5314L199.913 77.0027L243.352 64.5314V45.532Z" fill="#333C49"/>
        <path d="M199.913 38.2832H91.316V45.5321H199.913V38.2832Z" fill="#3F4A5A"/>
        <path d="M308.51 38.2832H199.913V45.5321H308.51V38.2832Z" fill="#262E37"/>
        <path d="M226.627 108.063H216.637C216.637 98.8426 209.132 91.3401 199.912 91.3401C190.69 91.3401 183.187 98.8422 183.187 108.063H173.197C173.197 93.3343 185.18 81.3479 199.911 81.3479C214.641 81.3479 226.627 93.3343 226.627 108.063Z" fill="#333C49"/>
        <path d="M156.474 158.232C180.465 158.232 199.913 138.783 199.913 114.793C199.913 90.8022 180.465 71.354 156.474 71.354C132.484 71.354 113.035 90.8022 113.035 114.793C113.035 138.783 132.484 158.232 156.474 158.232Z" fill="#333C49"/>
        <path d="M156.474 148.241C174.947 148.241 189.922 133.266 189.922 114.793C189.922 96.3201 174.947 81.345 156.474 81.345C138.001 81.345 123.026 96.3201 123.026 114.793C123.026 133.266 138.001 148.241 156.474 148.241Z" fill="white"/>
        <path d="M243.352 158.232C267.342 158.232 286.791 138.783 286.791 114.793C286.791 90.8022 267.342 71.354 243.352 71.354C219.361 71.354 199.913 90.8022 199.913 114.793C199.913 138.783 219.361 158.232 243.352 158.232Z" fill="#333C49"/>
        <path d="M243.352 148.239C261.824 148.239 276.798 133.265 276.798 114.793C276.798 96.3208 261.824 81.3462 243.352 81.3462C224.88 81.3462 209.905 96.3208 209.905 114.793C209.905 133.265 224.88 148.239 243.352 148.239Z" fill="white"/>
        <path d="M178.206 114.793C178.206 126.796 168.476 136.526 156.472 136.526C144.501 136.526 134.767 126.796 134.767 114.793C134.767 102.819 144.499 93.0874 156.472 93.0874C168.476 93.0874 178.206 102.819 178.206 114.793Z" fill="#FAD97F"/>
        <path d="M166.517 114.793C166.517 120.338 162.019 124.84 156.471 124.84C150.928 124.84 146.424 120.338 146.424 114.793C146.424 109.248 150.928 104.746 156.471 104.746C162.019 104.746 166.517 109.248 166.517 114.793Z" fill="#3F4A5A"/>
        <path d="M154.452 108.41C154.452 110.819 152.499 112.774 150.086 112.774C147.704 112.774 145.752 110.819 145.752 108.41C145.752 106.024 147.703 104.072 150.086 104.072C152.499 104.073 154.452 106.024 154.452 108.41Z" fill="white"/>
        <path d="M265.085 114.793C265.085 126.796 255.357 136.526 243.352 136.526C231.378 136.526 221.647 126.796 221.647 114.793C221.647 102.819 231.378 93.0874 243.352 93.0874C255.355 93.0874 265.085 102.819 265.085 114.793Z" fill="#FAD97F"/>
        <path d="M253.399 114.793C253.399 120.338 248.902 124.84 243.352 124.84C237.807 124.84 233.305 120.338 233.305 114.793C233.305 109.248 237.807 104.746 243.352 104.746C248.902 104.746 253.399 109.248 253.399 114.793Z" fill="#3F4A5A"/>
        <path d="M241.336 108.41C241.336 110.819 239.38 112.774 236.971 112.774C234.584 112.774 232.632 110.819 232.632 108.41C232.632 106.024 234.584 104.072 236.971 104.072C239.378 104.073 241.336 106.024 241.336 108.41Z" fill="white"/>
        <path d="M291.961 209.812H107.851V216.171H291.961V209.812Z" fill="#FAD97F"/>
        <path d="M291.961 216.174H107.851V222.542H291.961V216.174Z" fill="#F8C963"/>
        <path d="M291.961 222.535H107.851V228.904H291.961V222.535Z" fill="#F5B947"/>
        <path d="M107.855 228.912L96.82 222.537V216.174L107.851 209.811L107.855 228.912Z" fill="#EFEFEF"/>
        <path d="M107.855 228.912L107.851 222.537L96.82 220.404V222.537L107.855 228.912Z" fill="#CCCBCA"/>
        <path d="M96.8201 222.537L91.316 219.348L96.8201 216.174V222.537Z" fill="#3F4A5A"/>
        <path d="M297.477 222.535H291.961V228.904H297.477V222.535Z" fill="#CCCBCA"/>
        <path d="M297.477 209.812H291.961V222.535H297.477V209.812Z" fill="#EFEFEF"/>
        <path d="M298.965 228.9H297.481V222.537L298.965 222.531C301.397 222.531 303.849 221.603 305.716 219.75C306.747 218.683 307.511 217.466 307.958 216.163C308.322 217.197 308.511 218.259 308.511 219.348C308.511 221.802 307.573 224.231 305.717 226.106C303.849 227.972 301.397 228.894 298.965 228.9Z" fill="#262E37"/>
        <path d="M298.965 222.531L297.481 222.537V209.8H298.965C301.397 209.8 303.849 210.739 305.716 212.6C306.747 213.634 307.497 214.858 307.958 216.163C307.512 217.466 306.748 218.684 305.716 219.75C303.849 221.604 301.397 222.531 298.965 222.531Z" fill="#3F4A5A"/>
        <path d="M222.183 225.002C222.183 227.152 220.42 228.911 218.269 228.911C216.12 228.911 214.361 227.152 214.361 225.002V209.808C214.361 207.658 216.12 205.895 218.269 205.895C220.42 205.895 222.183 207.658 222.183 209.808V225.002Z" fill="#3F4A5A"/>
        <path d="M229.996 225.002C229.996 227.152 228.239 228.911 226.088 228.911C223.937 228.911 222.183 227.152 222.183 225.002V209.808C222.183 207.658 223.937 205.895 226.088 205.895C228.239 205.895 229.996 207.658 229.996 209.808V225.002Z" fill="#3F4A5A"/>
        <path d="M237.819 225.002C237.819 227.152 236.061 228.911 233.91 228.911C231.76 228.911 229.997 227.152 229.997 225.002V209.808C229.997 207.658 231.759 205.895 233.91 205.895C236.061 205.895 237.819 207.658 237.819 209.808V225.002Z" fill="#3F4A5A"/>
        <path d="M169.829 225.002C169.829 227.152 168.067 228.911 165.916 228.911C163.766 228.911 162.008 227.152 162.008 225.002V209.808C162.008 207.658 163.766 205.895 165.916 205.895C168.066 205.895 169.829 207.658 169.829 209.808V225.002Z" fill="#3F4A5A"/>
        <path d="M177.646 225.002C177.646 227.152 175.889 228.911 173.736 228.911C171.587 228.911 169.83 227.152 169.83 225.002V209.808C169.83 207.658 171.587 205.895 173.736 205.895C175.889 205.895 177.646 207.658 177.646 209.808V225.002Z" fill="#3F4A5A"/>
        <path d="M185.465 225.002C185.465 227.152 183.705 228.911 181.556 228.911C179.406 228.911 177.644 227.152 177.644 225.002V209.808C177.644 207.658 179.404 205.895 181.556 205.895C183.705 205.895 185.465 207.658 185.465 209.808V225.002Z" fill="#3F4A5A"/>
        <path d="M277.258 153.884L252.944 195.997C252.054 197.538 252.576 199.507 254.123 200.4L288.7 220.36L314.624 175.458L277.258 153.884Z" fill="#52BFEB"/>
        <path d="M311.285 171.668L287.353 213.12L256.916 195.547C255.784 194.897 254.33 195.289 253.677 196.42C253.022 197.555 253.412 199.011 254.547 199.666L287.05 218.43L313.357 172.864L311.285 171.668Z" fill="#F6F8FB"/>
        <path d="M281.66 152.704C280.123 151.816 278.145 152.347 277.258 153.884L252.944 195.997C253.831 194.461 255.794 193.927 257.338 194.811L287.777 212.385L312.09 170.273L281.66 152.704Z" fill="#5BBCBD"/>
        <path d="M301.197 182.731L277.669 169.147L269.592 183.138L293.119 196.722L301.197 182.731Z" fill="#F6F8FB"/>
        <path d="M293.963 182.818L281.212 175.456L280.504 176.681L293.256 184.043L293.963 182.818Z" fill="#52BFEB"/>
        <path d="M295.54 187.302L276.542 176.333L276.124 177.057L295.122 188.026L295.54 187.302Z" fill="#34495E"/>
        <path d="M294.313 189.426L275.315 178.458L274.896 179.182L293.894 190.15L294.313 189.426Z" fill="#34495E"/>
        <path d="M293.087 191.549L274.089 180.58L273.671 181.305L292.669 192.273L293.087 191.549Z" fill="#34495E"/>
        <path d="M283.014 153.486L281.651 152.699L257.337 194.811L258.7 195.598L283.014 153.486Z" fill="#52BFEB"/>
        <path d="M257.089 198.39L254.288 203.24L257.533 202.369L258.404 205.616L258.405 205.617L261.205 200.766L257.089 198.39Z" fill="#FF7059"/>
    </g>
    <path d="M76.1359 125.765L5.01904 159.031L42.3073 238.747L113.424 205.481L76.1359 125.765Z" fill="#E6EAEE"/>
    <path d="M71.1169 115.036L0 148.302L5.01897 159.032L76.1359 125.765L71.1169 115.036Z" fill="#D7753E"/>
    <path d="M80.113 134.268L8.99612 167.534L9.5124 168.638L80.6293 135.372L80.113 134.268Z" fill="#AAB5BD"/>
    <path d="M82.998 140.436L11.8811 173.702L12.3911 174.792L83.508 141.526L82.998 140.436Z" fill="#AAB5BD"/>
    <path d="M85.8752 146.595L14.7616 179.86L15.276 180.959L86.3896 147.695L85.8752 146.595Z" fill="#AAB5BD"/>
    <path d="M88.7574 152.748L17.6405 186.014L18.1584 187.121L89.2753 153.855L88.7574 152.748Z" fill="#AAB5BD"/>
    <path d="M91.6394 158.909L20.5225 192.176L21.036 193.273L92.1528 160.007L91.6394 158.909Z" fill="#AAB5BD"/>
    <path d="M94.5244 165.077L23.4075 198.343L23.9191 199.437L95.036 166.171L94.5244 165.077Z" fill="#AAB5BD"/>
    <path d="M97.408 171.241L26.2911 204.508L26.8026 205.601L97.9195 172.335L97.408 171.241Z" fill="#AAB5BD"/>
    <path d="M100.282 177.386L29.1653 210.652L29.686 211.765L100.803 178.499L100.282 177.386Z" fill="#AAB5BD"/>
    <path d="M103.166 183.55L32.0489 216.817L32.565 217.92L103.682 184.654L103.166 183.55Z" fill="#AAB5BD"/>
    <path d="M106.049 189.715L34.9323 222.981L35.4449 224.077L106.562 190.811L106.049 189.715Z" fill="#AAB5BD"/>
    <path d="M108.931 195.876L37.8144 229.142L38.3278 230.24L109.445 196.974L108.931 195.876Z" fill="#AAB5BD"/>
    <path d="M15.2495 154.246L13.6706 154.985L50.9589 234.7L52.5378 233.962L15.2495 154.246Z" fill="#52BFEB"/>
    <path d="M113.424 205.481L42.3072 238.747L46.2848 247.25L117.402 213.984L113.424 205.481Z" fill="#CDD3DA"/>
    <path d="M99.825 136.585L93.1334 139.715L123.283 204.169L129.975 201.039L99.825 136.585Z" fill="#34495E"/>
    <path d="M114.701 168.387L108.009 171.517L108.404 172.361L115.096 169.231L114.701 168.387Z" fill="#CDD3DA"/>
    <path d="M131.013 203.259L124.321 206.389L125.994 209.964L132.685 206.834L131.013 203.259Z" fill="#34495E"/>
    <path d="M93.7714 130.09L92.0174 130.91L93.1336 139.713L99.8251 136.583L93.7714 130.09Z" fill="#283A4D"/>
    <path d="M92.3904 128.525L91.7169 128.84L92.5657 130.655L93.2392 130.339L92.3904 128.525Z" fill="#CDD3DA"/>
    <path d="M129.331 201.34L123.913 203.874L124.952 206.095L130.37 203.56L129.331 201.34Z" fill="#CDD3DA"/>
    <path d="M118.985 173.931L129.683 196.801C129.75 196.944 129.772 197.117 129.712 197.274C129.652 197.432 129.536 197.571 129.374 197.647L121.874 201.155L122.41 202.301L129.91 198.793C130.371 198.577 130.732 198.192 130.896 197.708C131.064 197.236 131.047 196.728 130.83 196.264L120.132 173.394L118.985 173.931Z" fill="#283A4D"/>
    <defs>
        <linearGradient id="paint0_linear" x1="204.5" y1="0" x2="204.5" y2="247" gradientUnits="userSpaceOnUse">
            <stop stop-color="white" stop-opacity="0.37"/>
            <stop offset="1" stop-color="white" stop-opacity="0"/>
        </linearGradient>
        <clipPath id="clip0">
            <rect x="91.316" y="25" width="217.195" height="217.195" fill="white"/>
        </clipPath>
    </defs>
</svg>
